<svg width="139" height="19" viewBox="0 0 139 19" fill="none" xmlns="http://www.w3.org/2000/svg">
<path d="M0.200994 18V4.18182H3.12251V9.88317H9.05327V4.18182H11.968V18H9.05327V12.2919H3.12251V18H0.200994ZM16.7585 18H13.6278L18.3981 4.18182H22.163L26.9265 18H23.7958L20.3345 7.33949H20.2266L16.7585 18ZM16.5629 12.5685H23.9577V14.8491H16.5629V12.5685ZM33.6163 18.1889C32.6087 18.1889 31.7114 18.0157 30.9242 17.6694C30.1415 17.3185 29.523 16.8372 29.0687 16.2255C28.6189 15.6093 28.3873 14.8986 28.3738 14.0934H31.3155C31.3335 14.4308 31.4437 14.7276 31.6461 14.984C31.853 15.2359 32.1274 15.4316 32.4693 15.571C32.8111 15.7105 33.1957 15.7802 33.623 15.7802C34.0684 15.7802 34.4619 15.7015 34.8038 15.544C35.1457 15.3866 35.4133 15.1684 35.6067 14.8896C35.8001 14.6107 35.8968 14.2891 35.8968 13.9247C35.8968 13.5559 35.7934 13.2298 35.5865 12.9464C35.3841 12.6585 35.0917 12.4336 34.7093 12.2717C34.3315 12.1097 33.8817 12.0288 33.3599 12.0288H32.0712V9.88317H33.3599C33.8007 9.88317 34.1898 9.8067 34.5272 9.65376C34.869 9.50083 35.1344 9.28942 35.3233 9.01953C35.5123 8.74515 35.6067 8.42578 35.6067 8.06143C35.6067 7.71508 35.5235 7.41146 35.3571 7.15057C35.1951 6.88518 34.9657 6.67827 34.6689 6.52983C34.3765 6.38139 34.0346 6.30717 33.6433 6.30717C33.2475 6.30717 32.8854 6.37914 32.557 6.52308C32.2286 6.66252 31.9655 6.86269 31.7676 7.12358C31.5697 7.38447 31.464 7.69034 31.4505 8.04119H28.6504C28.6639 7.24503 28.891 6.54332 29.3319 5.93608C29.7727 5.32883 30.3664 4.85428 31.1131 4.51243C31.8643 4.16607 32.7122 3.9929 33.6568 3.9929C34.6104 3.9929 35.4448 4.16607 36.16 4.51243C36.8752 4.85878 37.4307 5.32659 37.8265 5.91584C38.2269 6.50059 38.4248 7.15732 38.4203 7.88601C38.4248 8.65968 38.1841 9.30516 37.6983 9.82244C37.217 10.3397 36.5895 10.6681 35.8159 10.8075V10.9155C36.8324 11.0459 37.6061 11.399 38.1369 11.9748C38.6722 12.546 38.9376 13.2612 38.9331 14.1204C38.9376 14.9076 38.7104 15.607 38.2516 16.2188C37.7973 16.8305 37.1698 17.3118 36.3691 17.6626C35.5685 18.0135 34.6509 18.1889 33.6163 18.1889ZM41.1141 18V4.18182H46.6468C47.6633 4.18182 48.5112 4.3325 49.1904 4.63388C49.8696 4.93525 50.3802 5.35357 50.722 5.88885C51.0639 6.41963 51.2348 7.03137 51.2348 7.72408C51.2348 8.26385 51.1269 8.7384 50.911 9.14773C50.695 9.55256 50.3982 9.88542 50.0203 10.1463C49.647 10.4027 49.2197 10.5849 48.7384 10.6928V10.8278C49.2646 10.8503 49.7572 10.9987 50.216 11.2731C50.6793 11.5475 51.0549 11.9321 51.3428 12.4268C51.6307 12.9171 51.7746 13.5019 51.7746 14.1811C51.7746 14.9143 51.5924 15.5688 51.2281 16.1445C50.8682 16.7158 50.3352 17.1679 49.629 17.5007C48.9228 17.8336 48.0524 18 47.0178 18H41.1141ZM44.0356 15.6115H46.4173C47.2315 15.6115 47.8253 15.4563 48.1986 15.146C48.5719 14.8311 48.7586 14.4128 48.7586 13.891C48.7586 13.5086 48.6664 13.1713 48.482 12.8789C48.2976 12.5865 48.0344 12.3571 47.6926 12.1907C47.3552 12.0243 46.9526 11.9411 46.4848 11.9411H44.0356V15.6115ZM44.0356 9.96413H46.2014C46.6018 9.96413 46.9571 9.89441 47.2675 9.75497C47.5824 9.61103 47.8298 9.40862 48.0097 9.14773C48.1941 8.88684 48.2863 8.57422 48.2863 8.20987C48.2863 7.71058 48.1086 7.308 47.7533 7.00213C47.4024 6.69626 46.9031 6.54332 46.2554 6.54332H44.0356V9.96413ZM56.0574 18H52.9267L57.6969 4.18182H61.4618L66.2253 18H63.0946L59.6333 7.33949H59.5254L56.0574 18ZM55.8617 12.5685H63.2566V14.8491H55.8617V12.5685ZM84.4781 9.01953H81.5228C81.4688 8.63719 81.3586 8.29758 81.1922 8.00071C81.0258 7.69934 80.8121 7.44294 80.5512 7.23153C80.2903 7.02012 79.989 6.85819 79.6471 6.74574C79.3097 6.63329 78.9432 6.57706 78.5473 6.57706C77.8321 6.57706 77.2091 6.75473 76.6784 7.11008C76.1476 7.46094 75.736 7.97372 75.4436 8.64844C75.1512 9.31865 75.0051 10.1328 75.0051 11.0909C75.0051 12.076 75.1512 12.9036 75.4436 13.5739C75.7405 14.2441 76.1543 14.7501 76.6851 15.092C77.2159 15.4338 77.8299 15.6048 78.5271 15.6048C78.9184 15.6048 79.2805 15.553 79.6134 15.4496C79.9507 15.3461 80.2499 15.1954 80.5107 14.9975C80.7716 14.7951 80.9875 14.55 81.1585 14.2621C81.3339 13.9742 81.4553 13.6458 81.5228 13.277L84.4781 13.2905C84.4016 13.9247 84.2104 14.5365 83.9046 15.1257C83.6032 15.7105 83.1961 16.2345 82.6833 16.6978C82.175 17.1566 81.5678 17.521 80.8616 17.7908C80.1599 18.0562 79.366 18.1889 78.4798 18.1889C77.2474 18.1889 76.1453 17.91 75.1737 17.3523C74.2066 16.7945 73.442 15.9871 72.8797 14.93C72.3219 13.873 72.0431 12.5933 72.0431 11.0909C72.0431 9.58404 72.3264 8.30208 72.8932 7.24503C73.46 6.18797 74.2291 5.38281 75.2007 4.82955C76.1723 4.27178 77.2654 3.9929 78.4798 3.9929C79.2805 3.9929 80.0227 4.10535 80.7064 4.33026C81.3946 4.55516 82.0041 4.88352 82.5349 5.31534C83.0657 5.74266 83.4975 6.26669 83.8303 6.88743C84.1677 7.50817 84.3836 8.21887 84.4781 9.01953ZM88.695 18H85.5644L90.3346 4.18182H94.0995L98.863 18H95.7323L92.271 7.33949H92.1631L88.695 18ZM88.4994 12.5685H95.8943V14.8491H88.4994V12.5685ZM100.526 4.18182H103.441V12.8722H103.556L109.527 4.18182H112.084V18H109.163V9.30291H109.061L103.056 18H100.526V4.18182ZM107.651 0.56534H109.655C109.651 1.384 109.347 2.04297 108.744 2.54226C108.146 3.04155 107.336 3.29119 106.315 3.29119C105.29 3.29119 104.478 3.04155 103.88 2.54226C103.281 2.04297 102.982 1.384 102.982 0.56534H104.973C104.968 0.87571 105.067 1.15459 105.269 1.40199C105.476 1.64938 105.825 1.77308 106.315 1.77308C106.792 1.77308 107.134 1.65163 107.341 1.40874C107.548 1.16584 107.651 0.884705 107.651 0.56534ZM113.972 6.59055V4.18182H125.32V6.59055H121.09V18H118.202V6.59055H113.972ZM128.68 18.1889V15.8139H129.429C129.803 15.8139 130.104 15.7689 130.333 15.679C130.563 15.5845 130.745 15.4473 130.88 15.2674C131.019 15.083 131.136 14.8536 131.231 14.5792L131.4 14.1271L126.38 4.18182H129.402L132.654 10.983L135.374 4.18182H138.356L133.592 15.2876C133.363 15.8004 133.091 16.2772 132.776 16.718C132.466 17.1589 132.067 17.5142 131.582 17.7841C131.096 18.054 130.475 18.1889 129.719 18.1889H128.68Z" fill="black"/>
</svg>
