<svg width="32" height="32" viewBox="0 0 32 32" fill="none" xmlns="http://www.w3.org/2000/svg">
<path d="M29.9851 0.283203H2.01749C1.05954 0.283203 0.282959 1.05978 0.282959 2.01773V29.9854C0.282959 30.9433 1.05954 31.7199 2.01749 31.7199H29.9851C30.9431 31.7199 31.7197 30.9433 31.7197 29.9854V2.01773C31.7197 1.05978 30.9431 0.283203 29.9851 0.283203Z" fill="#3D5A98"/>
<path d="M21.9716 31.7171V19.5435H26.0569L26.6679 14.7995H21.9716V11.7713C21.9716 10.3981 22.3541 9.46039 24.3224 9.46039H26.8352V5.21039C25.6184 5.08358 24.3956 5.02328 23.1722 5.02977C19.5544 5.02977 17.0629 7.23446 17.0629 11.3012V14.7995H12.9775V19.5435H17.0629V31.7171H21.9716Z" fill="white"/>
</svg>
