<svg width="32" height="33" viewBox="0 0 32 33" fill="none" xmlns="http://www.w3.org/2000/svg">
<path d="M24.5 0H7.5C3.35786 0 0 3.39041 0 7.57269V24.7374C0 28.9197 3.35786 32.3101 7.5 32.3101H24.5C28.6421 32.3101 32 28.9197 32 24.7374V7.57269C32 3.39041 28.6421 0 24.5 0Z" fill="url(#paint0_radial_344_6369)"/>
<path d="M24.5 0H7.5C3.35786 0 0 3.39041 0 7.57269V24.7374C0 28.9197 3.35786 32.3101 7.5 32.3101H24.5C28.6421 32.3101 32 28.9197 32 24.7374V7.57269C32 3.39041 28.6421 0 24.5 0Z" fill="url(#paint1_radial_344_6369)"/>
<path d="M16.0011 3.53418C12.6064 3.53418 12.1803 3.5492 10.847 3.61041C9.51625 3.672 8.60787 3.88467 7.81313 4.19679C6.99088 4.51913 6.2935 4.9504 5.59875 5.65213C4.90338 6.35374 4.47625 7.05788 4.156 7.88772C3.846 8.69042 3.63512 9.60798 3.57525 10.951C3.51562 12.2973 3.5 12.7277 3.5 16.1555C3.5 19.5832 3.515 20.0121 3.5755 21.3583C3.63675 22.7019 3.84738 23.6191 4.15625 24.4215C4.47575 25.2518 4.90288 25.9559 5.59788 26.6574C6.2925 27.3595 6.98988 27.7918 7.8115 28.1141C8.60687 28.4262 9.51537 28.6389 10.8459 28.7005C12.1792 28.7617 12.605 28.7767 15.9996 28.7767C19.3948 28.7767 19.8195 28.7617 21.1528 28.7005C22.4835 28.6389 23.3929 28.4262 24.1882 28.1141C25.0101 27.7918 25.7065 27.3595 26.401 26.6574C27.0964 25.9559 27.5234 25.2518 27.8438 24.4219C28.151 23.6191 28.362 22.7017 28.4245 21.3585C28.4844 20.0123 28.5 19.5832 28.5 16.1555C28.5 12.7277 28.4844 12.2975 28.4245 10.9512C28.362 9.6076 28.151 8.69055 27.8438 7.8881C27.5234 7.05788 27.0964 6.35374 26.401 5.65213C25.7057 4.95015 25.0104 4.51888 24.1875 4.19692C23.3906 3.88467 22.4817 3.67188 21.151 3.61041C19.8176 3.5492 19.3931 3.53418 15.9972 3.53418H16.0011ZM14.8798 5.80864C15.2126 5.80813 15.584 5.80864 16.0011 5.80864C19.3388 5.80864 19.7342 5.82075 21.0522 5.88121C22.271 5.9375 22.9325 6.1431 23.3731 6.31588C23.9565 6.54458 24.3724 6.81808 24.8096 7.25994C25.2471 7.70168 25.5179 8.12234 25.745 8.71137C25.9161 9.15564 26.12 9.82355 26.1755 11.0541C26.2354 12.3846 26.2484 12.7842 26.2484 16.1525C26.2484 19.5209 26.2354 19.9206 26.1755 21.251C26.1198 22.4815 25.9161 23.1495 25.745 23.5938C25.5185 24.1829 25.2471 24.6023 24.8096 25.0438C24.3721 25.4855 23.9568 25.7589 23.3731 25.9877C22.933 26.1612 22.271 26.3663 21.0522 26.4226C19.7345 26.4831 19.3388 26.4962 16.0011 26.4962C12.6634 26.4962 12.2677 26.4831 10.9501 26.4226C9.73137 26.3658 9.06987 26.1602 8.62887 25.9874C8.04562 25.7586 7.62887 25.4853 7.19137 25.0435C6.75387 24.6018 6.48312 24.1821 6.256 23.5928C6.08488 23.1484 5.881 22.4805 5.8255 21.25C5.76562 19.9195 5.75362 19.5199 5.75362 16.1494C5.75362 12.779 5.76562 12.3815 5.8255 11.051C5.88125 9.82039 6.08488 9.15248 6.256 8.70759C6.48263 8.11856 6.75388 7.6979 7.1915 7.25616C7.629 6.81442 8.04562 6.54092 8.629 6.31172C9.06962 6.13817 9.73137 5.93308 10.9501 5.87654C12.1032 5.82391 12.5501 5.80813 14.8798 5.80548V5.80864ZM22.6736 7.90425C21.8455 7.90425 21.1736 8.58201 21.1736 9.41828C21.1736 10.2544 21.8455 10.9328 22.6736 10.9328C23.5018 10.9328 24.1736 10.2544 24.1736 9.41828C24.1736 8.58213 23.5018 7.90375 22.6736 7.90375V7.90425ZM16.0011 9.67386C12.4561 9.67386 9.58187 12.576 9.58187 16.1555C9.58187 19.7349 12.4561 22.6357 16.0011 22.6357C19.5462 22.6357 22.4195 19.7349 22.4195 16.1555C22.4195 12.5761 19.546 9.67386 16.0009 9.67386H16.0011ZM16.0011 11.9483C18.3022 11.9483 20.1679 13.8318 20.1679 16.1555C20.1679 18.4789 18.3022 20.3626 16.0011 20.3626C13.6999 20.3626 11.8345 18.4789 11.8345 16.1555C11.8345 13.8318 13.6999 11.9483 16.0011 11.9483Z" fill="white"/>
<defs>
<radialGradient id="paint0_radial_344_6369" cx="0" cy="0" r="1" gradientUnits="userSpaceOnUse" gradientTransform="translate(8.5 34.7986) rotate(-90) scale(32.0217 29.4969)">
<stop stop-color="#FFDD55"/>
<stop offset="0.1" stop-color="#FFDD55"/>
<stop offset="0.5" stop-color="#FF543E"/>
<stop offset="1" stop-color="#C837AB"/>
</radialGradient>
<radialGradient id="paint1_radial_344_6369" cx="0" cy="0" r="1" gradientUnits="userSpaceOnUse" gradientTransform="translate(-5.36012 2.32747) rotate(78.7869) scale(14.3086 58.4575)">
<stop stop-color="#3771C8"/>
<stop offset="0.128" stop-color="#3771C8"/>
<stop offset="1" stop-color="#6600FF" stop-opacity="0"/>
</radialGradient>
</defs>
</svg>
